<svg width="250" height="250" viewBox="0 0 250 250" fill="none" xmlns="http://www.w3.org/2000/svg">
<path d="M143.357 73.7674C143.357 110.863 112.553 141.035 74.4286 141.035C36.3046 141.035 5.5 110.863 5.5 73.7674C5.5 36.6718 36.3046 6.5 74.4286 6.5C112.553 6.5 143.357 36.6718 143.357 73.7674Z" fill="#FF4242" stroke="#757575" stroke-width="5"/>
<path d="M242.5 174.233C242.5 212.477 210.755 243.5 171.571 243.5C132.387 243.5 100.643 212.477 100.643 174.233C100.643 135.988 132.387 104.965 171.571 104.965C210.755 104.965 242.5 135.988 242.5 174.233Z" fill="#E8E8E8" stroke="black"/>
<path d="M170.714 174.233L124 123" stroke="#757575" stroke-width="3"/>
<line x1="173.666" y1="172.315" x2="193.094" y2="134.478" stroke="#757575" stroke-width="3"/>
<ellipse cx="171.571" cy="174.233" rx="5.71429" ry="5.5814" fill="#696969"/>
<path d="M97.2858 75.1628L65.1429 93.2889V57.0367L97.2858 75.1628Z" fill="white"/>
<line x1="231" y1="174.5" x2="242.429" y2="174.5" stroke="black"/>
<line x1="101" y1="173.5" x2="112.429" y2="173.5" stroke="black"/>
<line x1="171.5" y1="105" x2="171.5" y2="116.163" stroke="black"/>
<line x1="171.5" y1="232" x2="171.5" y2="243.163" stroke="black"/>
</svg>
